<svg width="1237" height="134" viewBox="0 0 1237 134" fill="none" xmlns="http://www.w3.org/2000/svg">
<path d="M260 63.8758C260 80.0583 255.226 94.3866 246.412 105.343L259.816 117.649L242.006 134L227.133 120.346C218.136 124.56 207.302 126.92 195 126.92C153.319 126.92 130 100.286 130 63.8758C130 27.6337 153.319 1 195 1C236.314 1 260 27.6337 260 63.8758ZM195 102.141C199.04 102.141 202.712 101.635 205.833 100.624L189.675 85.7896L207.486 69.4385L223.644 84.2725C225.848 78.3726 226.949 71.2928 226.949 63.8758C226.949 42.9734 218.87 25.7795 195 25.7795C170.946 25.7795 163.051 42.9734 163.051 63.8758C163.051 84.9468 170.946 102.141 195 102.141Z" fill="#333333"/>
<path d="M409 84.1477C409 116.534 390.957 134 344 134C297.044 134 279 116.534 279 84.1477V1H318.13V84.1477C318.13 101.068 326.826 107.254 344 107.254C361.174 107.254 369.87 101.068 369.87 84.1477V1H409V84.1477Z" fill="#333333"/>
<path d="M87.8479 106.284H42.1521L33.5724 134H0L48.307 1H81.8794L130 134H96.4275L87.8479 106.284ZM49.7991 80.8H80.3873L65.2798 31.6923H64.9068L49.7991 80.8Z" fill="#333333"/>
<path d="M501.848 106.284H456.152L447.572 134H414L462.307 1H495.879L544 134H510.428L501.848 106.284ZM463.799 80.8H494.387L479.28 31.6923H478.907L463.799 80.8Z" fill="#333333"/>
<path d="M810 133V0H874.796C915.472 0 940 23.8098 940 66.593C940 109.376 917.516 133 876.84 133H810ZM846.793 27.3441V105.656H871.117C894.009 105.656 903.207 90.7748 903.207 66.593C903.207 42.4112 894.009 27.3441 871.117 27.3441H846.793Z" fill="#333333"/>
<path d="M1003.7 50.9678H1077.72V78.3119H1003.7V105.656H1091V133H961V0H1089.58V27.3441H1003.7V50.9678Z" fill="#333333"/>
<path d="M1107 0H1144.97L1171.8 93.193H1172.2L1199.23 0H1237L1190.88 133H1153.12L1107 0Z" fill="#333333"/>
<path fill-rule="evenodd" clip-rule="evenodd" d="M603 128.384C603 125.283 605.311 122.769 608.163 122.769H745.837C748.688 122.769 751 125.283 751 128.384C751 131.485 748.688 134 745.837 134H608.163C605.311 134 603 131.485 603 128.384Z" fill="#333333"/>
<path fill-rule="evenodd" clip-rule="evenodd" d="M621.093 7.57907C615.045 14.1581 615.045 24.7469 615.045 45.9245V83.3618C615.045 97.4797 615.045 104.539 619.077 108.925C623.11 113.311 629.6 113.311 642.58 113.311H711.417C724.397 113.311 730.887 113.311 734.92 108.925C738.952 104.539 738.952 97.4797 738.952 83.3618V45.9245C738.952 24.7469 738.952 14.1581 732.903 7.57907C726.855 0.999999 717.12 1 697.65 1H656.347C636.877 1 627.142 0.999999 621.093 7.57907ZM651.184 90.8489C651.184 87.7478 653.496 85.2334 656.347 85.2334H697.65C700.501 85.2334 702.812 87.7478 702.812 90.8489C702.812 93.95 700.501 96.4645 697.65 96.4645H656.347C653.496 96.4645 651.184 93.95 651.184 90.8489Z" fill="#333333"/>
</svg>
