<svg width="36" height="36" viewBox="0 0 36 36" fill="none" xmlns="http://www.w3.org/2000/svg">
<path d="M24.5009 6.74229L20.6656 10.3138L16.8396 13.8766L16.8363 13.8748L16.8381 13.878L16.8302 13.8854L16.8482 13.8958L17.8722 15.7086L18.6279 17.1532L20.3109 17.0709L22.1328 16.9472L22.1497 16.957L22.1522 16.9459L22.1562 16.9456L22.1528 16.9436L23.3253 11.8497L24.5009 6.74229Z" fill="#1E2022"/>
<path d="M24.4994 6.74902L18.5607 17.1582L20.3109 17.0709L22.1328 16.9473L22.1497 16.957L22.1522 16.946L22.1563 16.9457L22.1528 16.9437L23.3253 11.8497L24.4994 6.74902Z" fill="#1E2022"/>
<path d="M11.5007 29.2587L15.336 25.6872L19.162 22.1244L19.1652 22.1263L19.1635 22.1231L19.1714 22.1157L19.1534 22.1053L18.1294 20.2924L17.3737 18.8478L15.6907 18.9301L13.8688 19.0538L13.8519 19.044L13.8494 19.0551L13.8454 19.0554L13.8488 19.0574L12.6763 24.1513L11.5007 29.2587Z" fill="#1E2022"/>
<path d="M11.5022 29.252L17.4409 18.8429L15.6907 18.9301L13.8688 19.0538L13.8519 19.044L13.8493 19.0551L13.8453 19.0554L13.8488 19.0574L12.6762 24.1513L11.5022 29.252Z" fill="#1E2022"/>
<path d="M29.2388 24.5452L25.6401 20.6842L22.0502 16.8324L22.0521 16.8292L22.0488 16.831L22.0414 16.823L22.031 16.8408L20.2127 17.8383L18.7636 18.5731L18.8511 20.2495L18.9804 22.0646L18.9707 22.0813L18.9818 22.084L18.9821 22.088L18.9841 22.0846L24.1046 23.3133L29.2388 24.5452Z" fill="#1E2022"/>
<path d="M29.2319 24.5436L18.7584 18.5062L18.851 20.2495L18.9803 22.0646L18.9706 22.0813L18.9817 22.084L18.982 22.088L18.984 22.0846L24.1046 23.3133L29.2319 24.5436Z" fill="#1E2022"/>
<path d="M6.72295 11.5194L10.3467 15.3569L13.9616 19.1852L13.9598 19.1884L13.963 19.1866L13.9705 19.1946L13.9808 19.1767L15.7925 18.1674L17.2368 17.4231L17.1384 15.7474L16.9972 13.9331L17.0069 13.9163L16.9958 13.9137L16.9954 13.9097L16.9934 13.9132L11.865 12.7179L6.72295 11.5194Z" fill="#1E2022"/>
<path d="M6.72974 11.5211L17.2424 17.49L17.1384 15.7474L16.9973 13.9331L17.0069 13.9163L16.9958 13.9137L16.9954 13.9097L16.9935 13.9132L11.865 12.7179L6.72974 11.5211Z" fill="#1E2022"/>
<path d="M20.1426 14.2793C19.6528 13.9965 19.1125 13.8121 18.5527 13.7366C17.9929 13.6611 17.4244 13.6961 16.8798 13.8395C16.3352 13.9829 15.8251 14.2319 15.3787 14.5723C14.9322 14.9126 14.5581 15.3378 14.2778 15.8233C13.9974 16.3089 13.8163 16.8454 13.7447 17.4023C13.6732 17.9591 13.7126 18.5254 13.8607 19.0687C14.0089 19.612 14.2628 20.1218 14.6081 20.5689C14.9533 21.016 15.3831 21.3917 15.873 21.6745C16.3628 21.9573 16.9031 22.1417 17.4629 22.2171C18.0227 22.2926 18.5912 22.2576 19.1358 22.1143C19.6804 21.9709 20.1905 21.7219 20.6369 21.3815C21.0834 21.0411 21.4575 20.616 21.7378 20.1304C22.0182 19.6448 22.1993 19.1083 22.2708 18.5515C22.3424 17.9946 22.303 17.4284 22.1549 16.885C22.0067 16.3417 21.7528 15.8319 21.4075 15.3848C21.0623 14.9377 20.6324 14.5621 20.1426 14.2793ZM18.4179 17.2666C18.6079 17.3763 18.7469 17.5564 18.8044 17.7671C18.8619 17.9779 18.833 18.2022 18.7243 18.3905C18.6155 18.5789 18.4357 18.716 18.2245 18.7716C18.0132 18.8272 17.7877 18.7968 17.5977 18.6871C17.4077 18.5774 17.2687 18.3974 17.2112 18.1866C17.1537 17.9758 17.1826 17.7516 17.2913 17.5632C17.4001 17.3748 17.5799 17.2378 17.7911 17.1821C18.0024 17.1265 18.2278 17.1569 18.4179 17.2666Z" fill="#1E2022"/>
</svg>
